# xmcd
#
# Track frame offsets:
#	150
#	6762
#	14087
#	18712
#	25542
#	33772
#	37680
#	43330
#	49617
#	57542
#	67510
#	73885
#	81220
#	87272
#	95057
#	103170
#	110115
#	117640
#	121792
#	129037
#	138192
#	142117
#	148630
#	155562
#	164760
#	174937
#	182180
#	189717
#	196572
#	204947
#
# Disc length: 2835 seconds
#
# Revision: 1
# Processed by: cddbd v1.5.2PL0 Copyright (c) Steve Scherf et al.
# Submitted via: audiograbber 1.83.01
#
DISCID=a40b111e
DTITLE=saxoforever - Vol. 3
DYEAR=1900
DGENRE=
TTITLE0=24 Hington Street
TTITLE1=To sing for heaven
TTITLE2=Virgina Stomp
TTITLE3=Strange Blues
TTITLE4=Michel lives in USA
TTITLE5=He would like that
TTITLE6=The End for Eddy
TTITLE7=I`ll will be in the show
TTITLE8=This Blues is good to you
TTITLE9=Ballad to Jodie
TTITLE10=Prefer the blue
TTITLE11=Ernie is coming back
TTITLE12=So far from you
TTITLE13=It may be you
TTITLE14=You miss her
TTITLE15=1
TTITLE16=2
TTITLE17=3
TTITLE18=4
TTITLE19=5
TTITLE20=6
TTITLE21=7
TTITLE22=8
TTITLE23=9
TTITLE24=10
TTITLE25=11
TTITLE26=12
TTITLE27=13
TTITLE28=14
TTITLE29=15
EXTD=
EXTT0=
EXTT1=
EXTT2=
EXTT3=
EXTT4=
EXTT5=
EXTT6=
EXTT7=
EXTT8=
EXTT9=
EXTT10=
EXTT11=
EXTT12=
EXTT13=
EXTT14=
EXTT15=
EXTT16=
EXTT17=
EXTT18=
EXTT19=
EXTT20=
EXTT21=
EXTT22=
EXTT23=
EXTT24=
EXTT25=
EXTT26=
EXTT27=
EXTT28=
EXTT29=
PLAYORDER=
